<?xml version="1.0" encoding="UTF-8" standalone="no"?>
<!-- Created with Inkscape (http://www.inkscape.org/) -->

<svg
   xmlns:dc="http://purl.org/dc/elements/1.1/"
   xmlns:cc="http://creativecommons.org/ns#"
   xmlns:rdf="http://www.w3.org/1999/02/22-rdf-syntax-ns#"
   xmlns:svg="http://www.w3.org/2000/svg"
   xmlns="http://www.w3.org/2000/svg"
   version="1.1"
   width="32"
   height="32"
   viewBox="0 0 32 32"
   id="Layer_1"
   xml:space="preserve"><metadata
   id="metadata9"><rdf:RDF><cc:Work
       rdf:about=""><dc:format>image/svg+xml</dc:format><dc:type
         rdf:resource="http://purl.org/dc/dcmitype/StillImage" /><dc:title></dc:title></cc:Work></rdf:RDF></metadata><defs
   id="defs7" />
<path
   d="M 32.05,7.51 C 31.961,5.776 31.151,4.093 29.956,2.763 28.732,1.4 27.055,0.353 25.242,0.055 19.938,4.814 6.511,16.863 1.868,21.023 1.874,21.027 1.879,21.032 1.884,21.034 1.88,21.032 1.875,21.029 1.87,21.027 L 0,29.456 8.64,28.505 c 0,0.002 0.002,0.004 0.002,0.006 0.003,-0.002 0.005,-0.006 0.007,-0.006 l 0.007,-0.002 c 0,-0.002 0,-0.002 -0.001,-0.004 C 13.324,24.311 26.742,12.271 32.05,7.51 z M 6.129,23.475 C 5.464,22.807 4.901,22.397 4.126,21.869 L 25.123,2.883 c 0.709,0.219 1.691,0.792 1.992,1.611 L 6.129,23.475 z"
   id="path3"
   style="fill:#777777;fill-opacity:1" />
</svg>